<?xml version="1.0" encoding="UTF-8" standalone="no"?>
<svg
   xmlns:dc="http://purl.org/dc/elements/1.1/"
   xmlns:cc="http://creativecommons.org/ns#"
   xmlns:rdf="http://www.w3.org/1999/02/22-rdf-syntax-ns#"
   xmlns:svg="http://www.w3.org/2000/svg"
   xmlns="http://www.w3.org/2000/svg"
   xmlns:sodipodi="http://sodipodi.sourceforge.net/DTD/sodipodi-0.dtd"
   xmlns:inkscape="http://www.inkscape.org/namespaces/inkscape"
   width="115"
   height="57"
   viewBox="0 0 115 57"
   version="1.1"
   id="svg3184"
   inkscape:version="0.48.4 r9939"
   sodipodi:docname="startup-15.svg">
  <metadata
     id="metadata3202">
    <rdf:RDF>
      <cc:Work
         rdf:about="">
        <dc:format>image/svg+xml</dc:format>
        <dc:type
           rdf:resource="http://purl.org/dc/dcmitype/StillImage" />
      </cc:Work>
    </rdf:RDF>
  </metadata>
  <sodipodi:namedview
     pagecolor="#ffffff"
     bordercolor="#666666"
     borderopacity="1"
     objecttolerance="10"
     gridtolerance="10"
     guidetolerance="10"
     inkscape:pageopacity="0"
     inkscape:pageshadow="2"
     inkscape:window-width="1920"
     inkscape:window-height="1056"
     id="namedview3200"
     showgrid="false"
     showguides="true"
     inkscape:guide-bbox="true"
     inkscape:zoom="15.947368"
     inkscape:cx="48.028542"
     inkscape:cy="31.945032"
     inkscape:window-x="0"
     inkscape:window-y="24"
     inkscape:window-maximized="1"
     inkscape:current-layer="svg3184" />
  <!-- Generator: Sketch Beta 3.4 (15009) - http://www.bohemiancoding.com/sketch -->
  <title
     id="title3186">hey</title>
  <desc
     id="desc3188">Created with Sketch Beta.</desc>
  <defs
     id="defs3190" />
  <g
     id="g3237">
    <path
       sodipodi:nodetypes="ccccc"
       d="m 46.727987,54.921287 -1.5,0 4.47,-11.925 1.5,0 z"
       id="/MO"
       inkscape:connector-curvature="0"
       style="fill:#2d3238;fill-rule:evenodd;stroke:none" />
    <path
       d="M 6.417,17.977 C 3.7029864,17.746999 1.878338,16.543344 0.943,14.366 l 1.771,-1.288 c 0.2146677,0.782004 0.65933,1.437497 1.334,1.9665 0.67467,0.529003 1.4643288,0.870166 2.369,1.0235 l 0,-4.784 C 5.4049949,11.069332 4.5578367,10.831668 3.8755,10.571 3.1931633,10.310332 2.6258356,9.9155027 2.1735,9.3865 1.7211644,8.8574974 1.495,8.1560044 1.495,7.282 1.495,6.1013274 1.9358289,5.1008374 2.8175,4.2805 3.6991711,3.4601626 4.8989924,2.9810007 6.417,2.843 l 0,-2.231 1.771,0 0,2.254 c 1.1806726,0.092 2.15433,0.3833309 2.921,0.874 0.766671,0.4906691 1.44133,1.2113286 2.024,2.162 L 11.5,7.397 C 11.101331,6.5689959 10.645169,5.9480021 10.1315,5.534 9.6178308,5.1199979 8.9700039,4.8670005 8.188,4.775 l 0,4.853 c 1.0120051,0.2146677 1.859163,0.456165 2.5415,0.7245 0.682337,0.268335 1.249664,0.674664 1.702,1.219 0.452336,0.544336 0.6785,1.261162 0.6785,2.1505 0,1.196006 -0.448495,2.173496 -1.3455,2.9325 -0.897004,0.759004 -2.0891592,1.199833 -3.5765,1.3225 l 0,2.231 -1.771,0 0,-2.231 z m 0,-13.202 C 5.558329,4.8670005 4.9066689,5.1161646 4.462,5.5225 4.0173311,5.9288354 3.795,6.4616634 3.795,7.121 3.795,7.719003 4.0211644,8.1751651 4.4735,8.4895 4.9258356,8.8038349 5.5736624,9.0606657 6.417,9.26 l 0,-4.485 z m 4.416,9.108 c 0,-0.613336 -0.226164,-1.080998 -0.6785,-1.403 C 9.7021644,12.157998 9.046671,11.889668 8.188,11.675 l 0,4.416 c 1.7633422,-0.168667 2.645,-0.90466 2.645,-2.208 l 0,0 z"
       id="$"
       inkscape:connector-curvature="0"
       style="fill:#2d3238;fill-rule:evenodd;stroke:none" />
    <text
       sodipodi:linespacing="125%"
       id="text3229"
       y="55.056103"
       x="10.033002"
       style="font-size:40px;font-style:normal;font-variant:normal;font-weight:normal;font-stretch:normal;line-height:125%;letter-spacing:0px;word-spacing:0px;fill:#2d3238;fill-opacity:1;stroke:none;font-family:KacstOne;-inkscape-font-specification:KacstOne"
       xml:space="preserve"><tspan
         style="font-size:80px;font-style:normal;font-variant:normal;font-weight:normal;font-stretch:normal;fill:#2d3238;fill-opacity:1;font-family:KacstOne;-inkscape-font-specification:KacstOne"
         y="55.056103"
         x="10.033002"
         id="tspan3231"
         sodipodi:role="line">1</tspan></text>
    <text
       sodipodi:linespacing="125%"
       id="text3233"
       y="55.056107"
       x="50.666664"
       style="font-size:20px;font-style:normal;font-variant:normal;font-weight:normal;font-stretch:normal;line-height:125%;letter-spacing:0px;word-spacing:0px;fill:#2d3238;fill-opacity:1;stroke:none;font-family:KacstOne;-inkscape-font-specification:KacstOne"
       xml:space="preserve"><tspan
         style="font-size:16px;fill:#2d3238;fill-opacity:1"
         y="55.056107"
         x="50.666664"
         id="tspan3235"
         sodipodi:role="line">PATRON</tspan></text>
  </g>
</svg>
